<mxfile host="app.diagrams.net" agent="Mozilla/5.0 (X11; Linux x86_64; rv:131.0) Gecko/20100101 Firefox/131.0" version="24.7.17">
  <diagram name="Page-1" id="u-f5V1Fe5qcj7IZH7VJW">
    <mxGraphModel dx="1862" dy="1162" grid="1" gridSize="10" guides="1" tooltips="1" connect="1" arrows="1" fold="1" page="1" pageScale="1" pageWidth="850" pageHeight="1100" math="0" shadow="0">
      <root>
        <mxCell id="0" />
        <mxCell id="1" parent="0" />
        <mxCell id="Gi5dODjSnBm2IVbAOfIg-4" style="edgeStyle=orthogonalEdgeStyle;rounded=0;orthogonalLoop=1;jettySize=auto;html=1;entryX=0.5;entryY=0;entryDx=0;entryDy=0;" edge="1" parent="1" source="Gi5dODjSnBm2IVbAOfIg-1" target="Gi5dODjSnBm2IVbAOfIg-2">
          <mxGeometry relative="1" as="geometry" />
        </mxCell>
        <mxCell id="Gi5dODjSnBm2IVbAOfIg-1" value="&lt;div&gt;start&lt;/div&gt;" style="ellipse;whiteSpace=wrap;html=1;" vertex="1" parent="1">
          <mxGeometry x="365" y="30" width="120" height="80" as="geometry" />
        </mxCell>
        <mxCell id="Gi5dODjSnBm2IVbAOfIg-5" style="edgeStyle=orthogonalEdgeStyle;rounded=0;orthogonalLoop=1;jettySize=auto;html=1;entryX=0.5;entryY=0;entryDx=0;entryDy=0;" edge="1" parent="1" source="Gi5dODjSnBm2IVbAOfIg-2" target="Gi5dODjSnBm2IVbAOfIg-3">
          <mxGeometry relative="1" as="geometry" />
        </mxCell>
        <mxCell id="Gi5dODjSnBm2IVbAOfIg-2" value="define our constants in float type" style="rounded=1;whiteSpace=wrap;html=1;" vertex="1" parent="1">
          <mxGeometry x="365" y="160" width="120" height="60" as="geometry" />
        </mxCell>
        <mxCell id="Gi5dODjSnBm2IVbAOfIg-7" style="edgeStyle=orthogonalEdgeStyle;rounded=0;orthogonalLoop=1;jettySize=auto;html=1;entryX=0.5;entryY=0;entryDx=0;entryDy=0;" edge="1" parent="1" source="Gi5dODjSnBm2IVbAOfIg-3" target="Gi5dODjSnBm2IVbAOfIg-6">
          <mxGeometry relative="1" as="geometry" />
        </mxCell>
        <mxCell id="Gi5dODjSnBm2IVbAOfIg-3" value="define our constants in double type" style="rounded=1;whiteSpace=wrap;html=1;" vertex="1" parent="1">
          <mxGeometry x="365" y="260" width="120" height="60" as="geometry" />
        </mxCell>
        <mxCell id="Gi5dODjSnBm2IVbAOfIg-31" style="edgeStyle=orthogonalEdgeStyle;rounded=0;orthogonalLoop=1;jettySize=auto;html=1;entryX=0.5;entryY=0;entryDx=0;entryDy=0;" edge="1" parent="1" source="Gi5dODjSnBm2IVbAOfIg-6" target="Gi5dODjSnBm2IVbAOfIg-30">
          <mxGeometry relative="1" as="geometry" />
        </mxCell>
        <mxCell id="Gi5dODjSnBm2IVbAOfIg-6" value="f_r = operationsFloat" style="shape=process;whiteSpace=wrap;html=1;backgroundOutline=1;" vertex="1" parent="1">
          <mxGeometry x="343" y="360" width="165" height="60" as="geometry" />
        </mxCell>
        <mxCell id="Gi5dODjSnBm2IVbAOfIg-10" style="edgeStyle=orthogonalEdgeStyle;rounded=0;orthogonalLoop=1;jettySize=auto;html=1;entryX=0.5;entryY=0;entryDx=0;entryDy=0;" edge="1" parent="1" source="Gi5dODjSnBm2IVbAOfIg-8" target="Gi5dODjSnBm2IVbAOfIg-9">
          <mxGeometry relative="1" as="geometry" />
        </mxCell>
        <mxCell id="Gi5dODjSnBm2IVbAOfIg-8" value="operationsFloat" style="ellipse;whiteSpace=wrap;html=1;" vertex="1" parent="1">
          <mxGeometry x="660" y="140" width="120" height="80" as="geometry" />
        </mxCell>
        <mxCell id="Gi5dODjSnBm2IVbAOfIg-12" style="edgeStyle=orthogonalEdgeStyle;rounded=0;orthogonalLoop=1;jettySize=auto;html=1;entryX=0.5;entryY=0;entryDx=0;entryDy=0;" edge="1" parent="1" source="Gi5dODjSnBm2IVbAOfIg-9" target="Gi5dODjSnBm2IVbAOfIg-11">
          <mxGeometry relative="1" as="geometry" />
        </mxCell>
        <mxCell id="Gi5dODjSnBm2IVbAOfIg-9" value="first_action = (a-b)^2" style="rounded=1;whiteSpace=wrap;html=1;" vertex="1" parent="1">
          <mxGeometry x="660" y="270" width="120" height="60" as="geometry" />
        </mxCell>
        <mxCell id="Gi5dODjSnBm2IVbAOfIg-14" style="edgeStyle=orthogonalEdgeStyle;rounded=0;orthogonalLoop=1;jettySize=auto;html=1;" edge="1" parent="1" source="Gi5dODjSnBm2IVbAOfIg-11" target="Gi5dODjSnBm2IVbAOfIg-13">
          <mxGeometry relative="1" as="geometry" />
        </mxCell>
        <mxCell id="Gi5dODjSnBm2IVbAOfIg-11" value="second_action = a^2 - 2ab" style="rounded=1;whiteSpace=wrap;html=1;" vertex="1" parent="1">
          <mxGeometry x="640" y="380" width="160" height="60" as="geometry" />
        </mxCell>
        <mxCell id="Gi5dODjSnBm2IVbAOfIg-16" style="edgeStyle=orthogonalEdgeStyle;rounded=0;orthogonalLoop=1;jettySize=auto;html=1;" edge="1" parent="1" source="Gi5dODjSnBm2IVbAOfIg-13" target="Gi5dODjSnBm2IVbAOfIg-15">
          <mxGeometry relative="1" as="geometry" />
        </mxCell>
        <mxCell id="Gi5dODjSnBm2IVbAOfIg-13" value="third_action = first_action - second_action" style="rounded=1;whiteSpace=wrap;html=1;" vertex="1" parent="1">
          <mxGeometry x="590" y="490" width="260" height="60" as="geometry" />
        </mxCell>
        <mxCell id="Gi5dODjSnBm2IVbAOfIg-18" style="edgeStyle=orthogonalEdgeStyle;rounded=0;orthogonalLoop=1;jettySize=auto;html=1;entryX=0.5;entryY=0;entryDx=0;entryDy=0;" edge="1" parent="1" source="Gi5dODjSnBm2IVbAOfIg-15" target="Gi5dODjSnBm2IVbAOfIg-17">
          <mxGeometry relative="1" as="geometry" />
        </mxCell>
        <mxCell id="Gi5dODjSnBm2IVbAOfIg-15" value="result = third_action / b^2" style="rounded=1;whiteSpace=wrap;html=1;" vertex="1" parent="1">
          <mxGeometry x="640" y="600" width="160" height="60" as="geometry" />
        </mxCell>
        <mxCell id="Gi5dODjSnBm2IVbAOfIg-17" value="return result" style="ellipse;whiteSpace=wrap;html=1;" vertex="1" parent="1">
          <mxGeometry x="660" y="710" width="120" height="80" as="geometry" />
        </mxCell>
        <mxCell id="Gi5dODjSnBm2IVbAOfIg-19" style="edgeStyle=orthogonalEdgeStyle;rounded=0;orthogonalLoop=1;jettySize=auto;html=1;entryX=0.5;entryY=0;entryDx=0;entryDy=0;" edge="1" source="Gi5dODjSnBm2IVbAOfIg-20" target="Gi5dODjSnBm2IVbAOfIg-22" parent="1">
          <mxGeometry relative="1" as="geometry" />
        </mxCell>
        <mxCell id="Gi5dODjSnBm2IVbAOfIg-20" value="operationsDouble" style="ellipse;whiteSpace=wrap;html=1;" vertex="1" parent="1">
          <mxGeometry x="990" y="140" width="120" height="80" as="geometry" />
        </mxCell>
        <mxCell id="Gi5dODjSnBm2IVbAOfIg-21" style="edgeStyle=orthogonalEdgeStyle;rounded=0;orthogonalLoop=1;jettySize=auto;html=1;entryX=0.5;entryY=0;entryDx=0;entryDy=0;" edge="1" source="Gi5dODjSnBm2IVbAOfIg-22" target="Gi5dODjSnBm2IVbAOfIg-24" parent="1">
          <mxGeometry relative="1" as="geometry" />
        </mxCell>
        <mxCell id="Gi5dODjSnBm2IVbAOfIg-22" value="first_action = (a-b)^2" style="rounded=1;whiteSpace=wrap;html=1;" vertex="1" parent="1">
          <mxGeometry x="990" y="270" width="120" height="60" as="geometry" />
        </mxCell>
        <mxCell id="Gi5dODjSnBm2IVbAOfIg-23" style="edgeStyle=orthogonalEdgeStyle;rounded=0;orthogonalLoop=1;jettySize=auto;html=1;" edge="1" source="Gi5dODjSnBm2IVbAOfIg-24" target="Gi5dODjSnBm2IVbAOfIg-26" parent="1">
          <mxGeometry relative="1" as="geometry" />
        </mxCell>
        <mxCell id="Gi5dODjSnBm2IVbAOfIg-24" value="second_action = a^2 - 2ab" style="rounded=1;whiteSpace=wrap;html=1;" vertex="1" parent="1">
          <mxGeometry x="970" y="380" width="160" height="60" as="geometry" />
        </mxCell>
        <mxCell id="Gi5dODjSnBm2IVbAOfIg-25" style="edgeStyle=orthogonalEdgeStyle;rounded=0;orthogonalLoop=1;jettySize=auto;html=1;" edge="1" source="Gi5dODjSnBm2IVbAOfIg-26" target="Gi5dODjSnBm2IVbAOfIg-28" parent="1">
          <mxGeometry relative="1" as="geometry" />
        </mxCell>
        <mxCell id="Gi5dODjSnBm2IVbAOfIg-26" value="third_action = first_action - second_action" style="rounded=1;whiteSpace=wrap;html=1;" vertex="1" parent="1">
          <mxGeometry x="920" y="490" width="260" height="60" as="geometry" />
        </mxCell>
        <mxCell id="Gi5dODjSnBm2IVbAOfIg-27" style="edgeStyle=orthogonalEdgeStyle;rounded=0;orthogonalLoop=1;jettySize=auto;html=1;entryX=0.5;entryY=0;entryDx=0;entryDy=0;" edge="1" source="Gi5dODjSnBm2IVbAOfIg-28" target="Gi5dODjSnBm2IVbAOfIg-29" parent="1">
          <mxGeometry relative="1" as="geometry" />
        </mxCell>
        <mxCell id="Gi5dODjSnBm2IVbAOfIg-28" value="result = third_action / b^2" style="rounded=1;whiteSpace=wrap;html=1;" vertex="1" parent="1">
          <mxGeometry x="970" y="600" width="160" height="60" as="geometry" />
        </mxCell>
        <mxCell id="Gi5dODjSnBm2IVbAOfIg-29" value="return result" style="ellipse;whiteSpace=wrap;html=1;" vertex="1" parent="1">
          <mxGeometry x="990" y="710" width="120" height="80" as="geometry" />
        </mxCell>
        <mxCell id="Gi5dODjSnBm2IVbAOfIg-34" style="edgeStyle=orthogonalEdgeStyle;rounded=0;orthogonalLoop=1;jettySize=auto;html=1;entryX=0.5;entryY=0;entryDx=0;entryDy=0;" edge="1" parent="1" source="Gi5dODjSnBm2IVbAOfIg-30" target="Gi5dODjSnBm2IVbAOfIg-32">
          <mxGeometry relative="1" as="geometry" />
        </mxCell>
        <mxCell id="Gi5dODjSnBm2IVbAOfIg-30" value="d_r = operationsDouble" style="shape=process;whiteSpace=wrap;html=1;backgroundOutline=1;" vertex="1" parent="1">
          <mxGeometry x="337" y="460" width="177" height="60" as="geometry" />
        </mxCell>
        <mxCell id="Gi5dODjSnBm2IVbAOfIg-35" style="edgeStyle=orthogonalEdgeStyle;rounded=0;orthogonalLoop=1;jettySize=auto;html=1;entryX=0.5;entryY=0;entryDx=0;entryDy=0;" edge="1" parent="1" source="Gi5dODjSnBm2IVbAOfIg-32" target="Gi5dODjSnBm2IVbAOfIg-33">
          <mxGeometry relative="1" as="geometry" />
        </mxCell>
        <mxCell id="Gi5dODjSnBm2IVbAOfIg-32" value="output float results" style="shape=parallelogram;perimeter=parallelogramPerimeter;whiteSpace=wrap;html=1;fixedSize=1;" vertex="1" parent="1">
          <mxGeometry x="350" y="560" width="150" height="60" as="geometry" />
        </mxCell>
        <mxCell id="Gi5dODjSnBm2IVbAOfIg-37" style="edgeStyle=orthogonalEdgeStyle;rounded=0;orthogonalLoop=1;jettySize=auto;html=1;entryX=0.5;entryY=0;entryDx=0;entryDy=0;" edge="1" parent="1" source="Gi5dODjSnBm2IVbAOfIg-33" target="Gi5dODjSnBm2IVbAOfIg-36">
          <mxGeometry relative="1" as="geometry" />
        </mxCell>
        <mxCell id="Gi5dODjSnBm2IVbAOfIg-33" value="output double&amp;nbsp; results" style="shape=parallelogram;perimeter=parallelogramPerimeter;whiteSpace=wrap;html=1;fixedSize=1;" vertex="1" parent="1">
          <mxGeometry x="350.5" y="660" width="150" height="60" as="geometry" />
        </mxCell>
        <mxCell id="Gi5dODjSnBm2IVbAOfIg-36" value="end" style="ellipse;whiteSpace=wrap;html=1;" vertex="1" parent="1">
          <mxGeometry x="365" y="760" width="120" height="80" as="geometry" />
        </mxCell>
      </root>
    </mxGraphModel>
  </diagram>
</mxfile>
